<svg xmlns="http://www.w3.org/2000/svg" viewBox="0 0 280 64" fill="none" width="280" height="64">
  <defs>
    <linearGradient id="brandGrad" x1="0%" y1="0%" x2="100%" y2="100%">
      <stop offset="0%" stop-color="#34d399" />
      <stop offset="50%" stop-color="#4ade80" />
      <stop offset="100%" stop-color="#22c55e" />
    </linearGradient>
    <linearGradient id="glowGrad" x1="0%" y1="0%" x2="100%" y2="100%">
      <stop offset="0%" stop-color="#4ade80" stop-opacity="0.3" />
      <stop offset="100%" stop-color="#059669" stop-opacity="0" />
    </linearGradient>
  </defs>

  <!-- Logo Mark: Cloud + Graduation Cap / Growth Leaf -->
  <g transform="translate(4, 8)">
    <circle cx="24" cy="24" r="22" fill="url(#glowGrad)" />
    <path d="M12 28 C12 22 17 18 22 18 C24 13 30 11 35 14 C39 16 41 20 40 24 C44 24 47 27 47 31 C47 35 44 38 40 38 L16 38 C13 38 12 35 12 31 Z" fill="url(#brandGrad)" />
    <path d="M22 26 L29 20 L36 26 L29 32 Z" fill="#ffffff" opacity="0.95" />
    <circle cx="29" cy="26" r="2" fill="#15803d" />
  </g>

  <!-- Typography -->
  <text x="64" y="34" font-family="system-ui, -apple-system, BlinkMacSystemFont, 'Segoe UI', Roboto, sans-serif" font-weight="800" font-size="22" fill="#ffffff" letter-spacing="-0.5">
    Ayadi
  </text>
  <text x="134" y="34" font-family="system-ui, -apple-system, BlinkMacSystemFont, 'Segoe UI', Roboto, sans-serif" font-weight="800" font-size="22" fill="url(#brandGrad)" letter-spacing="-0.5">
    Cloudversity
  </text>
  <text x="65" y="48" font-family="system-ui, -apple-system, BlinkMacSystemFont, 'Segoe UI', Roboto, sans-serif" font-weight="500" font-size="9" fill="#94a3b8" letter-spacing="1.5">
    LEARNING PATHWAYS &amp; BEYOND
  </text>
</svg>
